<?xml version="1.0" encoding="UTF-8" standalone="no"?>
<!-- Created with Inkscape (http://www.inkscape.org/) -->

<svg
   width="62"
   height="52"
   viewBox="0 0 16.404166 13.758332"
   version="1.1"
   id="svg5"
   sodipodi:docname="flow_log.svg"
   inkscape:version="1.1 (c4e8f9e, 2021-05-24)"
   xmlns:inkscape="http://www.inkscape.org/namespaces/inkscape"
   xmlns:sodipodi="http://sodipodi.sourceforge.net/DTD/sodipodi-0.dtd"
   xmlns="http://www.w3.org/2000/svg"
   xmlns:svg="http://www.w3.org/2000/svg">
  <sodipodi:namedview
     id="namedview7"
     pagecolor="#ffffff"
     bordercolor="#666666"
     borderopacity="1.0"
     inkscape:pageshadow="2"
     inkscape:pageopacity="0.0"
     inkscape:pagecheckerboard="0"
     inkscape:document-units="mm"
     showgrid="false"
     fit-margin-top="0"
     fit-margin-left="0"
     fit-margin-right="0"
     fit-margin-bottom="0"
     inkscape:zoom="9.4074074"
     inkscape:cx="34.866142"
     inkscape:cy="30.986221"
     inkscape:window-width="1920"
     inkscape:window-height="1021"
     inkscape:window-x="0"
     inkscape:window-y="30"
     inkscape:window-maximized="1"
     inkscape:current-layer="layer1"
     units="px" />
  <defs
     id="defs2" />
  <g
     inkscape:label="Layer 1"
     inkscape:groupmode="layer"
     id="layer1"
     transform="translate(-219.97443,-32.433575)">
    <path
       style="fill:#2396f3;stroke:none;stroke-width:0.0274658"
       d="m 220.70063,41.484827 c -0.57759,0.111045 -0.57875,0.963528 0,1.072925 0.38025,0.07191 0.82171,0.01285 1.20849,0.01285 1.10591,0 2.27934,-0.113296 3.37829,0.0048 0.63301,0.06801 1.14503,0.738197 0.96012,1.368511 -0.20006,0.681977 -1.00568,1.033814 -1.61929,0.657284 -0.25034,-0.153588 -0.32649,-0.438051 -0.55188,-0.599386 -0.28248,-0.202176 -0.69933,-0.116565 -0.83562,0.21676 -0.11824,0.289188 0.0397,0.569971 0.21294,0.796509 0.39578,0.517675 0.99646,0.805052 1.64147,0.848996 1.9665,0.133897 3.0492,-2.453191 1.61792,-3.780367 -0.67002,-0.621305 -1.4487,-0.611719 -2.30456,-0.611719 h -2.03247 c -0.53279,0 -1.15239,-0.0877 -1.67541,0.01285 z"
       id="path1584-6" />
    <path
       style="fill:#2396f3;stroke:none;stroke-width:0.0274658"
       d="m 221.79925,39.287562 c -0.5195,0.09819 -0.60504,0.84265 -0.10986,1.045047 0.2241,0.0916 0.53093,0.04073 0.76904,0.04073 h 1.62048 6.09741 c 1.00861,0 2.13967,-0.141753 3.13112,0.04957 1.27136,0.245325 2.07017,1.650201 1.62885,2.861802 -0.47422,1.301825 -2.23055,1.963641 -3.3592,1.058422 -0.24175,-0.193881 -0.43672,-0.430334 -0.58599,-0.701367 -0.0967,-0.175617 -0.14414,-0.401056 -0.298,-0.538605 -0.23777,-0.21253 -0.63875,-0.163971 -0.8159,0.09956 -0.22797,0.339121 0.0308,0.797414 0.21123,1.09822 0.48912,0.815215 1.28668,1.378592 2.23023,1.52603 2.72758,0.426187 4.80016,-2.630512 3.35602,-4.986724 -0.21001,-0.342636 -0.47993,-0.651599 -0.80169,-0.893325 -1.12179,-0.842707 -2.49672,-0.672227 -3.81776,-0.672227 h -6.23474 -2.00499 c -0.32628,0 -0.69531,-0.04781 -1.01625,0.01285"
       id="path1582-7" />
    <path
       style="fill:#2396f3;stroke:none;stroke-width:0.0274658"
       d="m 228.9129,32.694555 c -0.87503,0.113489 -1.60565,0.427506 -2.13808,1.169384 -0.18364,0.255899 -0.41558,0.631385 -0.31602,0.961305 0.10901,0.361231 0.57176,0.479113 0.86067,0.259332 0.16057,-0.12214 0.20233,-0.314759 0.30435,-0.479058 0.1295,-0.208631 0.31652,-0.401992 0.52004,-0.53943 0.96339,-0.650555 2.27587,-0.01392 2.49928,1.088745 0.16345,0.806644 -0.41734,1.669016 -1.20839,1.870534 -0.57211,0.14576 -1.25219,0.05207 -1.84021,0.05207 h -3.57055 c -0.36708,0 -0.92651,-0.104094 -1.26343,0.05631 -0.37161,0.176907 -0.42473,0.720649 -0.0799,0.956277 0.19743,0.134885 0.485,0.08605 0.71165,0.08605 h 1.56555 2.91137 c 0.48486,0 1.00198,0.05122 1.48316,-0.0078 0.82994,-0.101925 1.56586,-0.579172 2.01338,-1.283039 0.96504,-1.517815 0.1161,-3.656003 -1.62886,-4.102569 -0.25375,-0.06496 -0.56277,-0.121921 -0.82397,-0.08806"
       id="path836-3-5" />
  </g>
</svg>
